<svg xmlns="http://www.w3.org/2000/svg" viewBox="0 0 64 64">
  <rect x="1" y="1" width="62" height="62" rx="16" fill="#0F1D3D"/>
  <circle cx="29" cy="24" r="14" fill="#FFD166"/>
  <circle cx="36" cy="18" r="13" fill="#0F1D3D"/>
  <path d="M18 12.5v7M14.5 16h7M49 18v8M45 22h8" stroke="#FFD166" stroke-width="1.5" stroke-linecap="round"/>
  <path d="M11 42.5c7.4-3.3 14.3-3.1 20.8 1.1v10.2C25.1 49.9 18.2 49.7 11 53V42.5Z" fill="#fff"/>
  <path d="M53 42.5c-7.4-3.3-14.3-3.1-20.8 1.1v10.2C38.9 49.9 45.8 49.7 53 53V42.5Z" fill="#fff"/>
  <path d="M32 43.6v10.2" stroke="#0F1D3D" stroke-width="1.5"/>
  <path d="M10.5 55.7c7.8-2.2 14.9-1.8 21.5 1.5 6.6-3.3 13.7-3.7 21.5-1.5" fill="none" stroke="#FFD166" stroke-width="2" stroke-linecap="round"/>
</svg>
